<?xml version="1.0" encoding="utf-8"?>
<!-- Generator: Adobe Illustrator 25.4.0, SVG Export Plug-In . SVG Version: 6.00 Build 0)  -->
<svg version="1.1" id="Layer_1" xmlns="http://www.w3.org/2000/svg" xmlns:xlink="http://www.w3.org/1999/xlink" x="0px" y="0px"
	 viewBox="0 0 673.9 185" style="enable-background:new 0 0 673.9 185;" xml:space="preserve">
<style type="text/css">
	.st0{fill:#FDC800;}
	.st1{fill:#DF9D00;}
	.st2{fill:#C18D00;}
	.st3{fill:#BD9700;}
	.st4{fill:#A28000;}
	.st5{fill:#D7AA00;}
	.st6{fill:#BE8600;}
	.st7{fill:#A17200;}
	.st8{fill:#876200;}
	.st9{fill:#5F4500;}
	.st10{fill:#E90000;}
	.st11{fill:#402F5B;}
</style>
<g>
	<g>
		<g>
			<g>
				<polygon class="st0" points="82.3,-0.2 163.7,44.8 82.3,93.4 1,44.9 				"/>
				<polygon class="st1" points="163.7,44.8 163.7,138.9 82.3,183.6 82.3,93.4 				"/>
			</g>
			<polygon class="st2" points="1,138.2 82.3,183.6 82.3,93.4 1,44.9 			"/>
			<g>
				<polygon class="st3" points="82.1,8.3 82.1,84.7 15,45 				"/>
				<polygon class="st4" points="82.1,65.5 82.1,84.7 15,45 				"/>
				<polygon class="st5" points="82.1,65.5 82.1,84.7 149.2,45 				"/>
			</g>
			<g>
				<polygon class="st6" points="89.9,97.7 157.3,56.7 157.3,134.5 				"/>
				<polygon class="st6" points="104.7,105.8 89.9,97.7 89.6,171.4 				"/>
				<polygon class="st7" points="89.9,97.7 157.3,56.7 104.7,105.8 				"/>
			</g>
			<g>
				<polygon class="st8" points="6.8,134.9 74.5,96.5 6.8,56.4 				"/>
				<polygon class="st8" points="58,105.8 74.5,96.5 74.8,170.2 				"/>
				<polygon class="st9" points="6.8,56.4 58,105.8 74.5,96.5 				"/>
			</g>
		</g>
	</g>
	<g>
		<g>
			<path class="st10" d="M438.9,49v1.8c2.7-3.5,5.6-6.1,8.8-7.8c3.2-1.7,6.8-2.5,11-2.5c4,0,7.6,0.9,10.8,2.6
				c3.2,1.7,5.5,4.2,7.1,7.4c1,1.9,1.7,3.9,2,6c0.3,2.2,0.4,4.9,0.4,8.3v28.3c0,3.1-0.7,5.4-2.1,6.9c-1.4,1.6-3.2,2.3-5.4,2.3
				c-2.3,0-4.1-0.8-5.5-2.4s-2.1-3.9-2.1-6.9V67.9c0-5-0.7-8.9-2.1-11.5c-1.4-2.7-4.2-4-8.3-4c-2.7,0-5.2,0.8-7.4,2.4
				c-2.2,1.6-3.9,3.8-4.9,6.7c-0.7,2.3-1.1,6.5-1.1,12.7v19.1c0,3.1-0.7,5.4-2.1,6.9s-3.3,2.3-5.6,2.3c-2.2,0-4-0.8-5.4-2.4
				s-2.1-3.9-2.1-6.9v-44c0-2.9,0.6-5.1,1.9-6.5s3-2.1,5.2-2.1c1.3,0,2.5,0.3,3.6,0.9c1.1,0.6,1.9,1.6,2.6,2.8
				C438.6,45.7,438.9,47.2,438.9,49z"/>
			<path class="st10" d="M536.6,75.3h-29.8c0,3.5,0.7,6.5,2.1,9.1s3.2,4.6,5.4,6c2.3,1.3,4.7,2,7.4,2c1.8,0,3.5-0.2,5-0.6
				s3-1.1,4.4-2s2.7-1.9,3.9-2.9s2.7-2.5,4.6-4.2c0.8-0.7,1.9-1,3.3-1c1.6,0,2.8,0.4,3.8,1.3s1.5,2.1,1.5,3.6c0,1.4-0.5,3-1.6,4.8
				s-2.7,3.6-4.9,5.3c-2.2,1.7-4.9,3.1-8.2,4.2s-7.1,1.7-11.4,1.7c-9.8,0-17.4-2.8-22.8-8.4s-8.1-13.1-8.1-22.7
				c0-4.5,0.7-8.7,2-12.5s3.3-7.1,5.9-9.9c2.6-2.8,5.7-4.9,9.5-6.3c3.8-1.5,7.9-2.2,12.5-2.2c6,0,11.1,1.3,15.3,3.8
				c4.3,2.5,7.4,5.8,9.6,9.7c2.1,4,3.2,8,3.2,12.2c0,3.8-1.1,6.3-3.3,7.4C543.7,74.8,540.6,75.3,536.6,75.3z M506.8,66.7h27.6
				c-0.4-5.2-1.8-9.1-4.2-11.7c-2.4-2.6-5.6-3.9-9.6-3.9c-3.8,0-6.9,1.3-9.3,3.9C508.8,57.7,507.3,61.5,506.8,66.7z"/>
			<path class="st10" d="M611,82.6c0,4.2-1,7.8-3.1,10.8c-2,3-5.1,5.3-9.1,6.8s-8.9,2.3-14.6,2.3c-5.5,0-10.2-0.8-14.1-2.5
				c-3.9-1.7-6.8-3.8-8.6-6.3c-1.9-2.5-2.8-5-2.8-7.6c0-1.7,0.6-3.1,1.8-4.3c1.2-1.2,2.7-1.8,4.5-1.8c1.6,0,2.8,0.4,3.7,1.2
				c0.9,0.8,1.7,1.9,2.5,3.3c1.6,2.7,3.4,4.7,5.6,6.1c2.2,1.3,5.1,2,8.9,2c3,0,5.6-0.7,7.5-2c2-1.4,2.9-2.9,2.9-4.7
				c0-2.7-1-4.6-3-5.9s-5.4-2.4-10-3.5c-5.2-1.3-9.5-2.7-12.8-4.1s-5.9-3.3-7.9-5.7c-2-2.3-3-5.2-3-8.6c0-3,0.9-5.9,2.7-8.6
				c1.8-2.7,4.5-4.9,8.1-6.5s7.8-2.4,12.9-2.4c3.9,0,7.5,0.4,10.6,1.2s5.8,1.9,7.9,3.3c2.1,1.4,3.7,2.9,4.8,4.6
				c1.1,1.7,1.6,3.3,1.6,4.9c0,1.7-0.6,3.2-1.8,4.3s-2.8,1.7-5,1.7c-1.6,0-2.9-0.4-4-1.3c-1.1-0.9-2.4-2.2-3.8-4
				c-1.2-1.5-2.5-2.7-4.1-3.6c-1.6-0.9-3.7-1.3-6.4-1.3c-2.8,0-5,0.6-6.9,1.8c-1.8,1.2-2.7,2.6-2.7,4.4c0,1.6,0.7,2.9,2,3.9
				s3.1,1.9,5.4,2.5c2.3,0.7,5.4,1.5,9.4,2.5c4.7,1.2,8.6,2.5,11.6,4.1s5.3,3.5,6.8,5.7C610.3,77.4,611,79.8,611,82.6z"/>
			<path class="st10" d="M672.9,82.6c0,4.2-1,7.8-3.1,10.8c-2,3-5.1,5.3-9.1,6.8s-8.9,2.3-14.6,2.3c-5.5,0-10.2-0.8-14.1-2.5
				c-3.9-1.7-6.8-3.8-8.6-6.3c-1.9-2.5-2.8-5-2.8-7.6c0-1.7,0.6-3.1,1.8-4.3c1.2-1.2,2.7-1.8,4.5-1.8c1.6,0,2.8,0.4,3.7,1.2
				c0.9,0.8,1.7,1.9,2.5,3.3c1.6,2.7,3.4,4.7,5.6,6.1c2.2,1.3,5.1,2,8.9,2c3,0,5.6-0.7,7.5-2c2-1.4,2.9-2.9,2.9-4.7
				c0-2.7-1-4.6-3-5.9s-5.4-2.4-10-3.5c-5.2-1.3-9.5-2.7-12.8-4.1s-5.9-3.3-7.9-5.7c-2-2.3-3-5.2-3-8.6c0-3,0.9-5.9,2.7-8.6
				c1.8-2.7,4.5-4.9,8.1-6.5s7.8-2.4,12.9-2.4c3.9,0,7.5,0.4,10.6,1.2s5.8,1.9,7.9,3.3c2.1,1.4,3.7,2.9,4.8,4.6
				c1.1,1.7,1.6,3.3,1.6,4.9c0,1.7-0.6,3.2-1.8,4.3s-2.8,1.7-5,1.7c-1.6,0-2.9-0.4-4-1.3c-1.1-0.9-2.4-2.2-3.8-4
				c-1.2-1.5-2.5-2.7-4.1-3.6c-1.6-0.9-3.7-1.3-6.4-1.3c-2.8,0-5,0.6-6.9,1.8c-1.8,1.2-2.7,2.6-2.7,4.4c0,1.6,0.7,2.9,2,3.9
				s3.1,1.9,5.4,2.5c2.3,0.7,5.4,1.5,9.4,2.5c4.7,1.2,8.6,2.5,11.6,4.1s5.3,3.5,6.8,5.7C672.2,77.4,672.9,79.8,672.9,82.6z"/>
		</g>
		<g>
			<path class="st11" d="M372.9,150.2v-31.8c0-1.5,0.3-2.6,0.9-3.3c0.7-0.8,1.5-1.1,2.7-1.1s2,0.3,2.7,1.1c0.7,0.8,1,1.9,1,3.3v31.8
				c0,1.5-0.3,2.6-1,3.3c-0.7,0.8-1.5,1.1-2.7,1.1c-1.1,0-2-0.3-2.7-1.1C373.2,152.7,372.9,151.6,372.9,150.2z"/>
			<path class="st11" d="M415.2,139.7c0,2.1-0.3,4.2-1,6c-0.7,1.9-1.6,3.4-2.9,4.7s-2.8,2.3-4.6,3.1c-1.8,0.7-3.8,1-6,1
				s-4.2-0.3-6-1.1c-1.8-0.7-3.3-1.7-4.6-3.1c-1.3-1.4-2.3-2.9-2.9-4.7c-0.7-1.8-1-3.9-1-6c0-2.2,0.3-4.3,1-6.1
				c0.7-1.9,1.6-3.4,2.9-4.7s2.8-2.3,4.6-3c1.8-0.7,3.8-1,6-1s4.2,0.3,6,1.1c1.8,0.7,3.3,1.7,4.6,3.1c1.3,1.3,2.2,2.9,2.9,4.7
				C414.9,135.5,415.2,137.5,415.2,139.7z M407.9,139.7c0-3-0.7-5.3-2-6.9s-3.1-2.5-5.3-2.5c-1.5,0-2.7,0.3-3.8,1.1
				c-1.1,0.8-2,1.8-2.5,3.3c-0.6,1.5-0.9,3.2-0.9,5.1s0.3,3.6,0.9,5.1s1.4,2.5,2.5,3.3s2.4,1.1,3.9,1.1c2.2,0,4-0.9,5.3-2.5
				C407.3,145,407.9,142.7,407.9,139.7z"/>
			<path class="st11" d="M448,130.2v21.3c0,2.4-0.3,4.5-0.8,6.3c-0.5,1.7-1.4,3.2-2.5,4.4c-1.1,1.1-2.7,2-4.5,2.6
				c-1.9,0.5-4.1,0.9-6.9,0.9c-2.5,0-4.8-0.3-6.8-1s-3.5-1.6-4.6-2.7s-1.6-2.2-1.6-3.4c0-0.9,0.3-1.6,0.9-2.2
				c0.6-0.6,1.4-0.9,2.2-0.9c1.1,0,2,0.5,2.8,1.5c0.4,0.5,0.8,0.9,1.2,1.5c0.4,0.5,0.9,0.9,1.4,1.3c0.5,0.3,1.1,0.6,1.8,0.8
				s1.5,0.3,2.5,0.3c1.9,0,3.3-0.3,4.5-0.8c1-0.5,1.8-1.3,2.2-2.2c0.4-0.9,0.7-2,0.8-3.1s0.1-2.8,0.2-5.2c-1.1,1.5-2.4,2.7-3.9,3.6
				c-1.5,0.9-3.3,1.2-5.3,1.2c-2.5,0-4.6-0.6-6.4-1.9c-1.8-1.3-3.3-3-4.2-5.2c-0.9-2.2-1.5-4.9-1.5-7.8c0-2.2,0.3-4.2,0.9-6
				s1.5-3.3,2.6-4.5s2.4-2.1,3.9-2.7s3-0.9,4.8-0.9c2.1,0,3.9,0.4,5.4,1.2c1.5,0.8,2.9,2.1,4.2,3.8v-1c0-1.3,0.3-2.2,0.9-2.9
				c0.6-0.7,1.5-1,2.4-1c1.4,0,2.3,0.4,2.8,1.4C447.7,127.1,448,128.5,448,130.2z M426.7,139.4c0,3,0.7,5.2,2,6.8
				c1.3,1.5,3,2.3,5.1,2.3c1.2,0,2.4-0.3,3.4-0.9c1.1-0.7,2-1.6,2.7-2.9c0.7-1.3,1-2.9,1-4.8c0-3-0.7-5.3-2-6.9
				c-1.3-1.6-3.1-2.5-5.2-2.5s-3.8,0.8-5.1,2.4S426.7,136.5,426.7,139.4z"/>
			<path class="st11" d="M481.5,139.7c0,2.1-0.3,4.2-1,6c-0.7,1.9-1.6,3.4-2.9,4.7s-2.8,2.3-4.6,3.1c-1.8,0.7-3.8,1-6,1
				s-4.2-0.3-6-1.1c-1.8-0.7-3.3-1.7-4.6-3.1c-1.3-1.4-2.3-2.9-2.9-4.7c-0.7-1.8-1-3.9-1-6c0-2.2,0.3-4.3,1-6.1
				c0.7-1.9,1.6-3.4,2.9-4.7s2.8-2.3,4.6-3c1.8-0.7,3.8-1,6-1s4.2,0.3,6,1.1c1.8,0.7,3.3,1.7,4.6,3.1c1.3,1.3,2.2,2.9,2.9,4.7
				S481.5,137.5,481.5,139.7z M474.1,139.7c0-3-0.7-5.3-2-6.9c-1.3-1.6-3.1-2.5-5.3-2.5c-1.5,0-2.7,0.3-3.8,1.1
				c-1.1,0.8-2,1.8-2.5,3.3c-0.6,1.5-0.9,3.2-0.9,5.1s0.3,3.6,0.9,5.1s1.4,2.5,2.5,3.3s2.4,1.1,3.9,1.1c2.2,0,4-0.9,5.3-2.5
				C473.4,145,474.1,142.7,474.1,139.7z"/>
			<path class="st11" d="M521,150.4v-0.7c-0.9,1.1-2,2.1-2.9,2.7c-0.9,0.7-2,1.3-3.1,1.6s-2.3,0.5-3.7,0.5c-1.7,0-3.3-0.3-4.9-1.1
				c-1.5-0.8-2.8-1.8-3.9-3.2s-1.9-3-2.5-4.9s-0.9-3.9-0.9-6c0-4.5,1.1-8.1,3.3-10.7s5.1-3.9,8.8-3.9c2.1,0,3.9,0.3,5.3,1.1
				c1.5,0.7,2.8,1.8,4.2,3.3v-10.8c0-1.5,0.3-2.7,0.9-3.4c0.6-0.8,1.5-1.1,2.6-1.1s2,0.3,2.6,1s0.9,1.7,0.9,3.1v32.3
				c0,1.4-0.3,2.4-0.9,3.2c-0.7,0.7-1.5,1-2.5,1s-1.8-0.3-2.5-1.1C521.3,152.8,521,151.8,521,150.4z M506.6,139.7
				c0,2,0.3,3.7,0.9,5.1c0.6,1.4,1.5,2.5,2.6,3.2s2.2,1,3.5,1s2.5-0.3,3.5-1s1.9-1.7,2.6-3.1c0.6-1.4,0.9-3.1,0.9-5.2
				c0-2-0.3-3.6-0.9-5.1c-0.6-1.4-1.5-2.5-2.6-3.3s-2.2-1.1-3.5-1.1c-1.4,0-2.6,0.3-3.6,1.1s-1.9,1.9-2.5,3.3
				C506.9,136.1,506.6,137.8,506.6,139.7z"/>
			<path class="st11" d="M555.8,141.5h-14.3c0,1.6,0.3,3.2,1,4.4c0.7,1.3,1.5,2.2,2.6,2.9c1,0.7,2.3,0.9,3.6,0.9
				c0.9,0,1.7-0.1,2.4-0.3s1.5-0.5,2.1-0.9c0.7-0.4,1.3-0.9,1.9-1.4c0.6-0.5,1.3-1.2,2.2-2.1c0.3-0.3,0.9-0.5,1.6-0.5
				c0.8,0,1.4,0.2,1.8,0.6s0.7,1,0.7,1.7s-0.3,1.5-0.8,2.3c-0.5,0.9-1.3,1.7-2.3,2.6c-1,0.8-2.4,1.5-3.9,2.1
				c-1.5,0.5-3.4,0.8-5.5,0.8c-4.7,0-8.4-1.4-11-4s-3.9-6.3-3.9-10.9c0-2.1,0.3-4.2,0.9-6c0.7-1.9,1.5-3.4,2.8-4.8
				c1.2-1.3,2.7-2.3,4.5-3.1c1.8-0.7,3.8-1,6-1c2.8,0,5.3,0.6,7.4,1.8c2.1,1.2,3.6,2.7,4.6,4.7c1,1.9,1.5,3.9,1.5,5.8
				c0,1.9-0.5,3-1.5,3.6C559.1,141.2,557.6,141.5,555.8,141.5z M541.4,137.4h13.3c-0.2-2.5-0.9-4.4-2.1-5.7
				c-1.2-1.3-2.7-1.9-4.6-1.9c-1.8,0-3.3,0.6-4.5,1.9C542.4,133,541.6,134.9,541.4,137.4z"/>
			<path class="st11" d="M591.5,145c0,2.1-0.5,3.8-1.5,5.2c-0.9,1.5-2.4,2.6-4.4,3.3s-4.3,1.1-7,1.1s-4.9-0.4-6.8-1.2
				c-1.9-0.8-3.3-1.8-4.2-3s-1.4-2.4-1.4-3.6c0-0.8,0.3-1.5,0.9-2.1c0.6-0.6,1.3-0.9,2.1-0.9s1.4,0.2,1.8,0.6
				c0.4,0.3,0.8,0.9,1.2,1.5c0.8,1.3,1.6,2.3,2.7,2.9s2.5,0.9,4.3,0.9c1.5,0,2.7-0.3,3.6-0.9c0.9-0.7,1.4-1.4,1.4-2.2
				c0-1.3-0.5-2.2-1.5-2.8c-0.9-0.6-2.6-1.1-4.8-1.7c-2.5-0.6-4.5-1.3-6.2-2c-1.5-0.7-2.8-1.6-3.8-2.7s-1.5-2.5-1.5-4.2
				c0-1.5,0.4-2.8,1.3-4.2c0.9-1.3,2.1-2.3,3.9-3.1c1.7-0.8,3.8-1.2,6.2-1.2c1.9,0,3.6,0.2,5.1,0.6s2.7,0.9,3.8,1.5
				c1,0.7,1.8,1.4,2.3,2.2s0.8,1.6,0.8,2.4c0,0.9-0.3,1.5-0.9,2.1c-0.6,0.5-1.4,0.8-2.4,0.8c-0.8,0-1.4-0.3-1.9-0.7s-1.1-1.1-1.8-2
				c-0.5-0.7-1.2-1.3-2-1.7s-1.8-0.7-3.1-0.7s-2.4,0.3-3.3,0.9c-0.9,0.6-1.3,1.3-1.3,2.1s0.3,1.4,0.9,1.9s1.5,0.9,2.6,1.2
				c1,0.3,2.6,0.7,4.5,1.2c2.3,0.5,4.1,1.2,5.6,2s2.6,1.7,3.3,2.7C591.2,142.5,591.5,143.7,591.5,145z"/>
			<path class="st11" d="M601.4,121.4c-1,0-1.9-0.3-2.7-0.9c-0.7-0.6-1.1-1.5-1.1-2.7c0-1,0.3-1.9,1.1-2.6s1.6-1,2.6-1
				s1.8,0.3,2.5,0.9c0.8,0.6,1.1,1.5,1.1,2.7c0,1.1-0.3,2-1.1,2.7C603.2,121.1,602.4,121.4,601.4,121.4z M605,129v21.2
				c0,1.5-0.3,2.6-1,3.3c-0.7,0.8-1.5,1.1-2.7,1.1s-2-0.3-2.7-1.1s-1-1.9-1-3.3v-21c0-1.5,0.3-2.6,1-3.3c0.7-0.8,1.5-1.1,2.7-1.1
				s2,0.3,2.7,1.1S605,127.7,605,129z"/>
			<path class="st11" d="M639.6,130.2v21.3c0,2.4-0.3,4.5-0.8,6.3s-1.4,3.2-2.5,4.4c-1.1,1.1-2.7,2-4.5,2.6
				c-1.9,0.5-4.1,0.9-6.9,0.9c-2.5,0-4.8-0.3-6.8-1s-3.5-1.6-4.6-2.7s-1.6-2.2-1.6-3.4c0-0.9,0.3-1.6,0.9-2.2
				c0.6-0.6,1.4-0.9,2.2-0.9c1.1,0,2,0.5,2.8,1.5c0.4,0.5,0.8,0.9,1.2,1.5c0.4,0.5,0.9,0.9,1.4,1.3c0.5,0.3,1.1,0.6,1.8,0.8
				s1.5,0.3,2.5,0.3c1.9,0,3.3-0.3,4.5-0.8c1-0.5,1.8-1.3,2.2-2.2s0.7-2,0.8-3.1s0.1-2.8,0.2-5.2c-1.1,1.5-2.4,2.7-3.9,3.6
				c-1.5,0.9-3.3,1.2-5.3,1.2c-2.5,0-4.6-0.6-6.4-1.9c-1.8-1.3-3.3-3-4.2-5.2s-1.5-4.9-1.5-7.8c0-2.2,0.3-4.2,0.9-6
				c0.6-1.8,1.5-3.3,2.6-4.5s2.4-2.1,3.9-2.7s3-0.9,4.8-0.9c2.1,0,3.9,0.4,5.4,1.2s2.9,2.1,4.2,3.8v-1c0-1.3,0.3-2.2,0.9-2.9
				c0.6-0.7,1.5-1,2.4-1c1.4,0,2.3,0.4,2.8,1.4C639.4,127.2,639.6,128.5,639.6,130.2z M618.3,139.4c0,3,0.7,5.2,2,6.8
				c1.3,1.5,3,2.3,5.1,2.3c1.2,0,2.4-0.3,3.4-0.9c1.1-0.7,2-1.6,2.7-2.9c0.7-1.3,1-2.9,1-4.8c0-3-0.7-5.3-2-6.9
				c-1.3-1.6-3.1-2.5-5.2-2.5c-2.1,0-3.8,0.8-5.1,2.4C619,134.3,618.3,136.5,618.3,139.4z"/>
			<path class="st11" d="M653.6,128.9v0.9c1.3-1.7,2.7-2.9,4.2-3.8s3.3-1.2,5.3-1.2s3.7,0.4,5.1,1.3c1.5,0.9,2.7,2.1,3.4,3.6
				c0.5,0.9,0.8,1.9,0.9,2.9c0.2,1,0.3,2.4,0.3,3.9v13.6c0,1.5-0.3,2.6-1,3.3c-0.7,0.8-1.5,1.1-2.7,1.1s-2-0.3-2.7-1.1s-1-1.9-1-3.3
				v-12.3c0-2.4-0.3-4.3-1-5.6s-2-1.9-4-1.9c-1.3,0-2.5,0.4-3.6,1.2s-1.9,1.9-2.4,3.2c-0.3,1.1-0.5,3.2-0.5,6.1v9.2
				c0,1.5-0.3,2.6-1,3.3c-0.7,0.8-1.5,1.1-2.7,1.1c-1,0-1.9-0.3-2.6-1.1c-0.7-0.8-1-1.9-1-3.3v-21.2c0-1.4,0.3-2.4,0.9-3.1
				s1.5-1,2.5-1c0.7,0,1.2,0.2,1.7,0.4c0.5,0.3,0.9,0.8,1.3,1.4C653.4,127.3,653.6,128,653.6,128.9z"/>
		</g>
		<g>
			<path class="st11" d="M207.3,26.7V50c2.9-3,5.8-5.3,8.8-6.8c3-1.6,6.7-2.4,11-2.4c5.1,0,9.5,1.2,13.3,3.6
				c3.8,2.4,6.8,5.9,8.9,10.4c2.1,4.6,3.2,10,3.2,16.2c0,4.6-0.6,8.8-1.8,12.7c-1.2,3.8-2.9,7.2-5.1,10c-2.2,2.8-4.9,5-8.1,6.6
				c-3.2,1.5-6.7,2.3-10.5,2.3c-2.3,0-4.5-0.3-6.6-0.8c-2.1-0.6-3.8-1.3-5.3-2.2c-1.5-0.9-2.7-1.9-3.7-2.8c-1-1-2.4-2.4-4-4.4v1.5
				c0,2.9-0.7,5-2.1,6.5c-1.4,1.5-3.1,2.2-5.2,2.2c-2.2,0-3.9-0.7-5.2-2.2s-1.9-3.6-1.9-6.5V27.3c0-3.1,0.6-5.4,1.9-7
				c1.2-1.6,3-2.4,5.2-2.4c2.3,0,4.1,0.8,5.4,2.3C206.7,21.7,207.3,23.9,207.3,26.7z M208.1,71.9c0,6.1,1.4,10.7,4.2,14
				s6.4,4.9,10.9,4.9c3.8,0,7.1-1.7,9.9-5c2.8-3.3,4.2-8.1,4.2-14.3c0-4-0.6-7.5-1.7-10.4c-1.2-2.9-2.8-5.1-4.9-6.7
				c-2.1-1.6-4.6-2.4-7.4-2.4c-2.9,0-5.5,0.8-7.8,2.4c-2.3,1.6-4.1,3.9-5.4,6.9C208.7,64.2,208.1,67.8,208.1,71.9z"/>
			<path class="st11" d="M302.7,94v-2c-1.8,2.3-3.7,4.2-5.7,5.8c-2,1.6-4.2,2.7-6.6,3.5s-5.1,1.1-8.1,1.1c-3.7,0-7-0.8-9.9-2.3
				s-5.2-3.6-6.8-6.3c-1.9-3.2-2.8-7.9-2.8-13.9V49.7c0-3,0.7-5.3,2.1-6.8s3.2-2.3,5.5-2.3s4.2,0.8,5.6,2.3s2.1,3.8,2.1,6.8v24.4
				c0,3.5,0.3,6.5,0.9,8.9s1.7,4.3,3.2,5.6c1.5,1.4,3.6,2,6.3,2c2.6,0,5-0.8,7.3-2.3s3.9-3.5,5-6c0.9-2.2,1.3-6.9,1.3-14.2V49.7
				c0-3,0.7-5.3,2.1-6.8s3.3-2.3,5.5-2.3c2.3,0,4.1,0.8,5.5,2.3s2.1,3.8,2.1,6.8v44.1c0,2.9-0.7,5.1-2,6.5c-1.3,1.5-3,2.2-5.1,2.2
				s-3.8-0.8-5.2-2.3C303.4,98.8,302.7,96.7,302.7,94z"/>
			<path class="st11" d="M381.2,82.6c0,4.2-1,7.8-3.1,10.8c-2,3-5.1,5.3-9.1,6.8s-8.9,2.3-14.6,2.3c-5.5,0-10.2-0.8-14.1-2.5
				s-6.8-3.8-8.6-6.3c-1.9-2.5-2.8-5-2.8-7.6c0-1.7,0.6-3.1,1.8-4.3c1.2-1.2,2.7-1.8,4.5-1.8c1.6,0,2.8,0.4,3.7,1.2
				c0.9,0.8,1.7,1.9,2.5,3.3c1.6,2.7,3.4,4.7,5.6,6.1c2.2,1.3,5.1,2,8.9,2c3,0,5.6-0.7,7.5-2c2-1.4,2.9-2.9,2.9-4.7
				c0-2.7-1-4.6-3-5.9c-2-1.2-5.4-2.4-10-3.5c-5.2-1.3-9.5-2.7-12.8-4.1s-5.9-3.3-7.9-5.7c-2-2.3-3-5.2-3-8.6c0-3,0.9-5.9,2.7-8.6
				c1.8-2.7,4.5-4.9,8.1-6.5s7.8-2.4,12.9-2.4c3.9,0,7.5,0.4,10.6,1.2s5.8,1.9,7.9,3.3c2.1,1.4,3.7,2.9,4.8,4.6
				c1.1,1.7,1.6,3.3,1.6,4.9c0,1.7-0.6,3.2-1.8,4.3c-1.2,1.1-2.8,1.7-5,1.7c-1.6,0-2.9-0.4-4-1.3c-1.1-0.9-2.4-2.2-3.8-4
				c-1.2-1.5-2.5-2.7-4.1-3.6c-1.6-0.9-3.7-1.3-6.4-1.3c-2.8,0-5,0.6-6.9,1.8c-1.8,1.2-2.7,2.6-2.7,4.4c0,1.6,0.7,2.9,2,3.9
				s3.1,1.9,5.4,2.5c2.3,0.7,5.4,1.5,9.4,2.5c4.7,1.2,8.6,2.5,11.6,4.1s5.3,3.5,6.8,5.7C380.5,77.4,381.2,79.8,381.2,82.6z"/>
			<path class="st11" d="M401.8,33.5c-2.1,0-3.9-0.7-5.4-2s-2.3-3.1-2.3-5.5c0-2.2,0.8-3.9,2.3-5.3s3.3-2.1,5.4-2.1
				c2,0,3.7,0.6,5.2,1.9s2.3,3.1,2.3,5.5c0,2.3-0.7,4.2-2.2,5.5C405.6,32.9,403.9,33.5,401.8,33.5z M409.3,49.3v44
				c0,3.1-0.7,5.4-2.2,6.9c-1.5,1.6-3.3,2.3-5.5,2.3s-4-0.8-5.4-2.4s-2.1-3.9-2.1-6.9V49.7c0-3,0.7-5.3,2.1-6.8s3.2-2.3,5.4-2.3
				c2.2,0,4.1,0.8,5.5,2.3C408.6,44.4,409.3,46.6,409.3,49.3z"/>
		</g>
	</g>
</g>
</svg>
